<?xml version="1.0" encoding="UTF-8"?>
<svg id="Layer_2" data-name="Layer 2" xmlns="http://www.w3.org/2000/svg" viewBox="0 0 243.24 242.71">
  <defs>
    <style>
      .cls-1 {
        fill: #233349;
      }
    </style>
  </defs>
  <g id="Layer_1-2" data-name="Layer 1">
    <g>
      <g>
        <path class="cls-1" d="M96.92,92.15l.1-1.1c4.81,1.9,7.64,7.13,11.83,9.8,2.41,1.54,4.92,2.79,7.55,3.95,2.04.9,4.3,1.02,6.09,1.41,5.79,1.25,9.26.95,14.8,2.42,4.76-.27,8.35-2.02,12.53-3.06,2.14-.54,4.29-1.17,6.37-1.99,2.76-1.09,4.69-3.39,6.83-5.06,1.2-.94,2.29-1.83,3.29-3.01,2.24-2.68,4.07-5.64,5.79-8.72.93-1.66,1.95-3.31,2.38-5.24,1.52-6.9.45-11.13,1.96-18.15.08-.39.61-.88.93-.91,1.57-.17,1.77,4.51,1.93,5.89.47,4.2.33,8.25-.26,12.42-.54,3.83-1.43,4.81-2.69,8.08l-1.16,1.84c-1.71,2.72-3.34,5.33-5.22,7.83-1.33,1.76-2.99,3.05-4.66,4.4-2.84,2.29-5.25,4.65-8.63,5.5l-8.88,2.22c-4.3,1.08-7.7,2.59-12.56,1.99l-4.69-.58-9.93-1.56c-3.14-.49-5.87-1.54-8.58-3.02l-1.81-.99c-6.76-3.23-9.43-8.38-13.28-14.35Z"/>
        <path class="cls-1" d="M139.41,104.78c-6.73.38-7.3,1.32-14.41-.96-1.48-.47-2.84-2.09-2.69-3.65.89-1.01,2.6-.69,3.78-.41l2.85.67c2.37.56,4.75.54,7.17.35l1.98-.16c3.98-.31,6.12-.09,10.22-1.48,1.66-.57,3.08-1.39,4.47-2.43l2.54-1.9c1.1-.82,2.05-1.79,3.07-2.74,1.4-1.31,2.96-2.51,4.04-4.17,2.3-3.51,4.36-7.17,5.54-11.22.86-2.94,1-6.04.84-9.06l-.18-3.37c-.19-3.62-1.37-6.97-2-10.52-.74-4.21-2.05-7.98-4.49-11.53-2.89-5.07-6.55-9.41-10.21-13.87-.54-.65-2.01-2.62-1.46-3.31,1.4-1.74,7.52,4.89,8.42,5.96l3.65,4.36c1.38,1.64,2.52,3.46,3.39,5.41l2.61,5.84c.18.41.29.71.39,1.13l1.15,5.02,1.03,4.54c.86,3.78,1.38,7.48,1.65,11.38.54,7.85-1.38,11.76-4.79,18.47-1.68,3.3-3.14,5.55-5.88,7.95l-2.36,2.07c-1.5,1.31-3.04,2.43-4.63,3.58-1.77,1.28-3.59,2.12-5.7,2.7s-4.2,1.01-6.42,1.14l-3.59.21Z"/>
        <path class="cls-1" d="M157.22,86.89c-.92,3.04-4.47,5.3-6.93,7.05-2.03,1.45-3.59,2-6.02,2.8-3.78,1.24-7.62,1.55-11.59,1.14-3.01-.31-7.9-2.61-10.41-4.32-2.91-1.99-6.2-3.25-9.02-5.23-1.75-1.23-3.29-2.66-4.83-4.07l-2-1.82c-.55-.5-1.38-1.28-1.82-1.85l-2.39-3.13c-1.71-2.24-3.15-4.54-4.7-6.8-.86-1.26-1.73-2.41-2.47-3.75-1.95-3.52-3.74-7.02-5-10.86-.69-2.1-.68-2.71-.97-4.38-.2-1.14-.65-2.28-.98-3.42-.97-3.34-1.87-6.6-1.91-10.14-.02-1.97.59-3.85.97-5.76l.98-4.92c.06-.31.13-.57.28-.85,1.53-2.8,2.13-5.04,5.99-5.93.51-.12,1.35-.02,1.41.37-.55,1.28-.9,2.64-1.69,3.61-1.05,1.28-2.04,2.47-2.51,4.15-.65,2.33-1.2,4.62-1.55,7.05-.6,4.18,1.71,14.36,2.87,18.72,1.81,6.8.01,3.98,4.81,10.06,1.64,2.07,2.7,4.32,4.05,6.56,1.43,2.37,3.09,4.52,4.72,6.78,1.07,1.49,2.57,2.6,3.88,3.87,1.64,1.59,3.28,3.19,5.37,4.18l4.49,2.14,3.07,1.38c3.75,1.69,6.43,3.97,10.59,3.97,3.43,0,8.03.17,10.86-1.75l4.09-2.07c2.69-1.82,2.65-1.8,5.75-4.42.67-.57,1.8-1.03,2.62-.93.61.67.22,1.74-.03,2.55Z"/>
        <path class="cls-1" d="M117.37,100.08c-1.36.6-6.86-2.84-8.35-4.16-.71-.63-3.87-3.18-4.58-4.04l-3.53-3.54-.93-1.24-6.31-7.92-1.99-2.66-1.76-2.33c-2.03-2.69-3.26-5.76-4.62-8.83-.43-.98-.65-2.08-1.03-3.13-1.24-3.5-2.17-6.95-2.91-10.59-.61-2.96-1.4-5.81-1.46-8.84l-.13-6.59c-.17-8.54,2.88-19.73,9.41-25.75l3.92-3.62c1.79-1.65,4.09-2.52,6.2-3.71,1.42-.81.21.18,3.43-.84,1.09-.34,4.12-1.16,4.78.01.35.63.37,1.56-.06,2-.7.71-1.09.91-1.91,1.2l-3.3,1.16c-1.35.47-2.71,1.32-3.89,2.11l-1.18.79c-.92.62-1.75,1.31-2.64,2.04-3.17,2.57-6.14,5.45-7.68,9.39-1.46,3.73-2.31,7.65-2.58,11.65-.15,2.19-1.01,4.25-1.01,6.39,0,3.32.36,6.44,1.16,9.66l1.6,6.48.82,2.91.78,2.68c.7,2.39,1.56,4.65,2.56,6.94.95,2.18,2.43,3.85,3.85,5.64,1.42,1.78,2.09,3.5,3.7,5.06l1.01.98,3.14,3.88c2.5,2.96,6.09,5.81,8.71,8.59l5.19,4.85s1.83,1.58,1.92,1.7c.25.34.08,1.54-.3,1.71Z"/>
        <path class="cls-1" d="M101.63,58.92c.83,1.81,2.2,3.79,3.38,5.32.16.21.41.6.62.84l.82.96c1.83,2.15,7.56,8.02,9.67,9.93,1.41,1.27,3.16,2.09,4.43,3.47l1.52,1.65c.53.57,1.12,1.83.25,2.47-.81.6-2.33.26-3.24-.24-4.31-2.37-6.44-4.32-9.52-7.86l-1.72-1.97-2.33-2.55c-2.65-2.9-6.55-8.53-7.75-12.24l-2.11-8.38c-.92-2.83-1.62-5.59-1.37-8.64.14-1.62-.33-3.23-.32-4.86,0-2.9.63-5.84,1.59-8.56,1.86-5.22,7.28-7.87,12.1-9.87,5.52-2.3,7.46-4.14,14.09-4.5,1.82-.1,3.68-.75,5.5-.43l6.81,1.2c1.23.22,5.4.96,6.22,1.42,2.01,1.15,1.21.29,3.04,1.15,1.45.68,2.75,1.26,4.12,2.12.49.31.58,1.18.62,1.74l.11,1.54-1.58.33c-1.36-1-2.82-1.47-4.39-2.06-2.13-.79-4.14-1.84-6.36-2.42-1.53-.4-8.3-1.23-10.09-1.11l-5.32.74c-1.84.26-3.79.04-5.73.8-.52.2-1.59.28-2.03.57l-4.61,3.25c-1.91,1.35-3.84,2.54-5.7,3.98l-2.8,2.17c-.72.56-1.19,1.37-1.32,2.27-.4,2.85-.83,5.64-.84,8.54,0,1.81.31,3.6.51,5.36.59,5.19,1.53,9.08,3.72,13.85Z"/>
        <path class="cls-1" d="M154.09,40.66c-2.82-5.25-4.97-6.24-9.65-9.73-1.65-1.23-3.28-2.39-5.18-3.27-3.31-1.52-7-2.27-10.64-2.45-1.38-.06-2.61.14-3.86.28-2.86.32-5.69.89-8.48,1.58-3.98.98-8.09,2.29-10.75,6.19-.29.42-.59.9-.88,1.38-1.21,2.03-1.23,7.57-.97,10.1.16,1.55.34,3.23.09,4.42-.09.45-.68.56-.93.17-2.01-3.05-2.12-6.11-2.3-9.57s.09-6.5,2.28-9.33c.32-.41.67-1.04,1.12-1.46.66-.61,1.38-1.35,2.11-1.84,2.99-1.98,5.92-3.27,9.4-4.06,3.78-.86,11.48-2.42,15.05-1.97,2.5.32,4.83.98,7.23,1.81,3.4,1.18,6.35,3.1,9.06,5.41,2.35,2.01,4.54,3.96,6.68,6.18,1.4,1.45,2.15,3.22,3.14,4.97,2.95,5.23,3.18,6.57,5.08,11.93,1.72,4.85,4.49,12.8,3.6,17.79l-.72,3.98c-.25,1.38-.88,2.71-1.4,4.07-.54,1.42-.89,3.26-1.96,4.3-.69.67-1.67-.5-1.96-1.04-.51-.97-.56-1.89-.25-2.92l.83-2.74c.51-1.68.65-3.26.91-4.85.25-1.5.64-2.92.55-4.47-.31-5.35-1.39-10.51-2.93-15.68-.34-1.13-.6-2.34-1.14-3.34l-3.14-5.85Z"/>
        <path class="cls-1" d="M174.56,53.5c-1.64-6.14-4.22-12.75-8.05-17.84l-4.27-5.67c-3.25-4.32-6.63-8.72-11.14-11.72-5.73-3.81-12.79-6.57-19.69-7.11l-6.74-.53c-9.16-.72-9.65.34-17.24,3.41l-6.33,2.56c-.3.12-.61.37-.83.38-.26,0-.65-.64-.63-.93.13-2.25,3.63-3.89,5.8-5.2,4.42-2.67,8.55-4.97,13.87-5.12,8.88-.25,15.22-.29,23.45,3.03,7.39,2.98,13.15,6.77,17.97,13.17l4.66,6.18,4.23,6.14c2.37,3.44,4.2,7.04,6.01,10.81.18.37.27.62.38.96l1.98,6.7c.54,1.81.19,4.03-.81,4.7-1.31.87-2.42-3.14-2.63-3.91Z"/>
        <path class="cls-1" d="M144.3,53.6c-.91-1.46-1.95-2.73-2.99-4.06-.02,0-.04-.02-.05-.03-.01,0-.03,0-.04-.01-.05-.02-.11-.04-.17-.06-.09-.03-.19-.06-.29-.08-.01,0-.04-.01-.07-.02,0,0,0,0-.02,0-.03,0-.05,0-.08,0-.09,0-.18-.01-.27,0-.05,0-.1,0-.15,0-.09.02-.19.04-.27.08-.61.28.97,3.25,1.15,3.66.22.5.44,1.04.63,1.58,1.02,1.91,1.82,3.93,1.8,6.04.33,1.67.35,3.4-.03,5.09-1.42,2.19-1.41,1.52-2.48,2.69-.88.97-2.22,1.31-3.56,1.38-1.4.07-2.89.22-4.24.04-1.54-.21-2.88-1.32-4.29-1.82-.71-.26-1.11-.64-1.71-1.05-4.37-3.01-8.25-6.44-11.4-10.74-.97-1.32-2.24-2.47-2.89-3.96-1.14-2.62-1.71-5.28-2.2-8.05-.17-.99-.61-2.03-.63-3.03-.03-1.53.22-3.41.88-4.79,1-2.07,4.39-2.15,3.94-5.19-.21-1.45-4.59.05-6.55,2.09-.74.77-1.06,1.71-1.31,2.68-1.87,7.04-.33,7.81,1.59,13.71,1.02,3.16,2.57,5.88,4.72,8.38,1.94,2.26.59,2.7,7.04,8.37,2.61,2.29,5.31,4.42,8.52,5.77,4.35,1.83,6.93,2.51,11.59.9,2.92-1,5.88-5.17,6.05-7.59.32-4.28.1-8.26-2.22-11.98Z"/>
        <path class="cls-1" d="M126.46,84.71c-.31-.41-.25-1.01.17-1.3,1.71-1.21,5.83,1.13,7.56,1.54,5.59,1.33,13.45-1.92,16.93-6.53.44-.59,1.36-1.16,1.73-1.81,2.42-4.27,2.58-9.4,2.23-14.21-.25-3.47-1.05-6.85-1.93-10.25-.43-1.66-1.44-3.11-2.3-4.57-1.3-2.21-2.45-4.39-3.97-6.46-1.31-1.79-5.12-4.76-7.06-6.04l-.79-.52c-2.57-1.69-5.46-2.92-8.54-3.43-3.61-.61-11.91,1.94-12.18-.2-.2-1.62,9.92-4.9,15.62-2.92,3.17,1.1,6.22,2.26,8.94,4.29,2.01,1.5,3.85,2.99,5.68,4.78,1.32,1.29,5.15,8.34,6.21,10.45s1.67,4.04,2.18,6.21l1.57,6.71c.58,2.5.58,7.55-.12,10.24-.89,3.38-1.94,6.64-3.49,9.72l-3.49,3.81c-.92,1.01-2.28,1.55-3.49,2.22-4.38,2.42-9.33,3.58-14.31,2.57-1.36-.28-2.64-1.07-3.94-1.53-2.29-.81-2.27-1.51-3.2-2.76Z"/>
        <path class="cls-1" d="M187.43,83.91c-.41,1.44-.54,3.16-1.54,4.26-1.24,1.37-3.14-2.41-2.93-3.7.63-3.88,1.88-4.99,2.16-11.01.16-3.43.11-10.96-.38-14.26-.54-3.71-1.48-7.26-2.58-10.85-.61-1.99-1.74-3.67-2.73-5.45-.84-1.5-1.52-3.03-2.44-4.47s-2.02-2.55-2.99-3.89l-1.65-2.29-1.5-2.08c-.77-1.07-1.57-2.03-2.39-3.06-3.67-4.57-7.41-8.92-11.7-12.9-2.29-2.12-4.66-3.74-7.3-5.33l-6.07-3.66c-.2-.12-.52-.6-.39-.75s.62-.33.83-.29c5.45,1.03,3.28.49,8.07,2.54l2.91,1.25c2.1.9,3.83,2.05,5.43,3.64,1.27,1.26,2.54,2.46,3.72,3.78l1.47,1.63,1.12,1.29,4.73,5.69,6.6,9.06c1.47,2.01,2.51,4.09,3.65,6.29l2.93,5.67c1.34,2.59,1.74,5.46,2.57,8.25.91,3.06,1.41,6.01,1.7,9.18l.31,3.44.18,3.43c.26,4.96-.13,8.65-1.49,13.46l-.32,1.12Z"/>
        <path class="cls-1" d="M81.49,93.64l2.39,2.5c1.25,1.3,1.64,3.31.24,4.59-3.03-2.04-5.61-4.49-8.1-7.13l-2.79-2.96c-3.96-4.19-7-8.88-9.55-14.07-1.33-2.71-2.99-5.14-3.88-8.01l-2.47-7.92c-2.93-9.37-2.76-18.86-.45-28.34,1.16-4.73,3.11-8.91,5.89-12.88.52-.74.9-1.54,1.33-2.45.16-.34.51-.56.89-.56h0c.35,0,.64.28.66.63.03.71.08,1.45-.1,1.99-.26.78-.5,1.69-.85,2.41-2.96,6.23-4.62,12.61-5.34,19.49-.72,6.95.27,13.95,2.52,20.56,1.04,3.05,1.76,6.05,3.29,8.87l3.65,6.75c1.54,2.85,3.38,5.34,5.37,7.94l2.97,3.88c.05.07.58.41.47.68l3.85,4.03Z"/>
        <path class="cls-1" d="M144.53,43.41c.21.32-2.69-2.99-2.43-2.78l-1.6-1.35c-2.93-2.47-6.5-4.23-10.29-5.02-2.83-.59-5.71-.02-8.41.75-2.35.68-4,2.29-5.55,4.07-1.78,2.04-1.54,4.39-1.31,7.13.1,1.22.08,2.55.61,3.69.82,1.75,1.7,3.49,2.85,5.03l.93,1.25c1.12.62,3.52,3.45,4.54,4.31,2.37,2.01,3.96,3.09,6.74,4.53.97.5,2.72.53,3.73.48,3.83-.19,5.23-2.82,5.04-6.25-.09-1.75-.06-2.92-.46-4.61-.83-3.51-1.12-8.88-4.69-10.95-2.1-1.22-3.33.22-3.73,2.21-.76-3.48-5.61-4.25-6.63-.47-.77,2.83,1.2,6.8,3.61,8.5,1.09.78,2.25,1.55,3.41,2.27.39.24.84-.24.57-.61-1.26-1.73-4.04-3.68-4.36-6.07-.15-1.14-.26-2.89,1.42-2.61.72.12,1.96,1.62,2.27,2.45.09.25.44.26.53.01.27-.7,1.16-2.25,1.98-2.13,1.06.16,1.69,2.78,1.88,3.67.32,1.52.95,6.11,1.14,7.65.4,3.28-1.42,4.5-5.31,2.87-1.78-.75-3.73-2.81-5.27-3.95-1.15-.85-2.44-1.98-3.32-3.02l-.52-.62c-2.44-2.9-4.98-5.59-3.43-9.56.47-1.2.45-1.85,1.32-2.74,1.9-1.91,4.58-2.45,7.23-2.42,1.93.02,3.68.14,5.48.81,1.28.47,2.66.82,3.83,1.5,1.25.73,2.51,1.49,3.62,2.43,1.95,1.67,3.76,4,4.99,6.33l2.29,4.31c.17.33,1.13.68,1.31.4.35-.58.74-1.62.81-2.26-1.31-3.54-2.75-6.12-4.83-9.22Z"/>
        <path class="cls-1" d="M171.09,120.91c-.37.27-1.3.68-1.7.51-1.11-.48-1.58-1.53-2.06-2.54-.44-.92-.11-1.85.74-2.41l4.44-2.94c1.54-1.02,2.73-2.25,3.93-3.64,2.2-2.52,4.26-5,6.05-7.85,2.3-2.12,4.04-4.69,5.25-7.68.96-2.37,2.18-4.59,2.81-7.11,1.55-6.22,1.94-12.51,2.17-18.88.13-3.81-.18-7.04-.86-10.7-.04-.2.07-.62.15-.75s.65,0,.77.13c2.39,2.63,3.76,7.2,3.92,10.9.3,6.74-.35,13.29-1.26,20.02-1.35,4.52-3.08,8.87-5.28,13.13-.8,1.55-3.09,4.61-4.11,5.65-2.22,2.3-2.32,3.21-3.26,4.2l-1.73,1.82-1.35,1.53c-3.51,3.98-4.46,3.59-8.64,6.61Z"/>
        <path class="cls-1" d="M132.75,118.7c-1.78-.52-6-1.57-6.97-2.88-.11-.16.1-.71.32-.72l2.69-.21c4.01-.31,6.56.36,11.06,0,1.7-.14,3.44-.09,5.09-.37,2.71-.47,5.33-.67,7.95-1.39-2.07.57,7.69-3.19,6.42-2.63,3.45-1.54,6.59-3.44,9.72-5.51.99-.65,1.72-1.6,2.44-2.46l1.07-1.29,4-4.83c.49-.59,1.03-1.19,1.36-1.87,1.71-1.24.97-2.64,3.39-2.22,1.32,2.87-1.47,7.9-3.23,10.17l-3.09,3.98c-1.53,1.97-3.96,4.36-6.28,5.61s-4.59,2.5-7.08,3.18c.46-.13-9.15,2.37-7.2,1.55l-2.84,1.21c-1.19.51-2.5.31-3.74.6-3.9.9-11.38,1.16-15.09.08Z"/>
        <path class="cls-1" d="M148.06,69.98c.94-2.27.36-6.54,1.07-9.53.16-.7,1-.99,1.58-.57.63.46.94.66,1.02,2.18l.24,4.45c.12,2.23-.25,4.47-1.17,6.5-1.22,2.73-2.81,5.27-5.52,6.8-2.15,1.21-4.63,1.5-7.02,1.83-4.94.67-11.28-1.87-15.37-4.64-6.12-4.13-8.38-6.42-12.77-12.38l-1.49-2.03c-1.14-1.55-4.55-7.34-4.28-9.34,1.02-.91,2.55-.85,3.58-.29.82,2.64,1.76,5.16,3.45,7.26l1.98,2.47.59.76c1.25,1.62,2.48,3.19,3.88,4.72.68.74,1.68,1.32,2.41,2.02,2.13,2.02,6.27,4.19,9.09,4.94l3.51.94c1.66.44,3.29.93,5.05.71,1.64-.2,3.34-.3,4.82-1.02,2.42-1.18,4.33-3.3,5.36-5.78Z"/>
        <path class="cls-1" d="M102.87,105.31c2.08,1.73,3.94,3.53,6,5.04.39.28.25.9-.23.96-2.21.3-6.7-3-7.83-3.84-2.86-2.12-7.96-6.34-10.44-9.08l-6.95-7.7-6.85-8.68c-2.24-2.83-3.7-5.98-5.17-9.29-2.41-5.4-4.06-10.94-5.5-16.69-.31-1.23.38-2.31,1.54-2.61.41.22,1.13.69,1.39,1.01l.86,3.23.24,1.4c1.16,6.7,4.18,12.95,7.71,18.78,1.94,3.2,4.38,5.8,6.57,8.77,1.64,2.23,3.62,4.01,5.52,5.99l2.3,2.39,6.03,5.88c1.59,1.55,3.03,2.94,4.82,4.43Z"/>
        <path class="cls-1" d="M92.23,87.92c-.48.87-2.08-1.79-2.93-2.58-1.32-1.24-4.14-3.83-4.95-5.2-.93-1.57-1.87-3.01-2.64-4.69-2.74-6.02-8.2-18.58-8.36-24.87l-.14-5.51c-.08-3.17-.21-6.29-.04-9.47l.13-2.31c.05-.87-.08-2.06.45-2.79.47-.63,2.15-.61,2.65-.03.27.76.16,1.8,0,2.6-.67,3.52-.71,7.05-.46,10.65.36,5.02,0,7.58,1.59,12.34,1.33,3.98,1.68,4.3,3.22,7.67l3.66,8.01c1.15,2.52,2.48,4.78,3.98,7.09,1.29,1.98,2.39,3.92,3.56,5.99.49.87.84,2.04.26,3.1Z"/>
        <path class="cls-1" d="M53.54,83.82c.82,1.9,1.47,3.68,2.57,5.34.08.12.2.46.22.6.03.17-.41.48-.58.48-.37,0-1.21-.24-1.43-.61-2.06-3.47-4.36-7.08-6.18-10.73-4.35-8.72-6.08-15.42-7.53-24.99-.39-2.56.25-9.92,1.31-12.13l2.1-4.4c.15-.32.63-.49,1.39-.71-.22,3.5-1.48,6.64-1.25,10.58.02.29.21.8.18,1.11-.51,5.52,2.59,15.39,4.16,20.91l.94,3.31.79,2.51c.94,3,2.01,5.77,3.3,8.75Z"/>
        <path class="cls-1" d="M164.93,132.68c-8.37,1.57-10.68,1.89-18.99-.69-.83-.26-1.26-1.13-1.14-1.78l3.89-.08c6.16-.13,17.68-1.43,22.74-5.06l4.54-3.26c.34-.24.72-.62,1.1-.83,1.26-.69,2.15-1.66,3.22-2.57l1.54-1.32c1.05-.9,2.14-1.67,3.15-2.63.3-.28.85-1.1,1.28-.88,2.2,1.14-2.11,4.86-2.69,5.47l-3.05,3.18-1.77,1.74c-2.45,2.41-1.92,2.5-4,4.41-.85.78-1.93,1.46-2.95,1.93l-2.01.92-1.41.43c-1.17.35-2.28.8-3.45,1.02Z"/>
        <path class="cls-1" d="M201.8,83.02c-.14-.97-.1-2.1.05-3.28.98-7.38-.21-18.01-2.13-25.25l-1.12-4.2c-.79-2.98-2-5.66-3.32-8.43l-1.8-3.8c-.59-1.25-1.48-2.3-2.31-3.38-.22-.29.13-.67.44-.47,1.99,1.27,3.51,2.88,4.92,4.51,2.66,3.09,4.31,6.53,5.59,10.35,1.63,4.84,2.81,9.62,3.03,14.75.06,1.43.19,2.75.07,4.17-.37,4.49-.7,8.8-1.53,13.26l-.85,1.52-1.04.24Z"/>
        <path class="cls-1" d="M164.58,120.43c.42.78-.13,2.64-1,3.06-1.83.89-3.72,1.28-5.59,1.98-1.48.56-2.85,1.36-4.47,1.48-3.64.29-7.15-.14-10.77-.53-1.2-.13-2.43-.07-3.6-.28-4.58-.82-9.08-1.83-13.11-4.12l-2.4-1.37c-.34-.2-.24-.71.15-.77.94-.15,1.81.33,2.74.5,4.72.85,9.39,1.78,14.2,2.01l4.23.2c2.85.13,5.99.74,8.75-.05l7.07-2.02c.43-.12,3.17-1.27,3.8-.1Z"/>
        <path class="cls-1" d="M193.17,46.98c.55,1.49-.24,3.9-.93,4.28-.26.14-.9-.17-1.13-.44-.93-1.08-1.26-2.38-1.74-3.72l-1.45-4.08c-1.25-3.53-3.07-6.57-5.18-9.64-1.94-2.84-3.74-5.61-5.93-8.26l-2.36-2.85c-1.06-1.28-2.2-2.48-3.36-3.78l-5.05-5.6c-.62-.69-1.48-.93-1.85-2.03.82-.39,2.6.29,3.28.82,5.59,4.32,5.62,4,10.06,9.6,3.72,4.7,7.31,9.38,10.39,14.52,1.62,2.7,4.14,8.19,5.25,11.18Z"/>
        <path class="cls-1" d="M199.92,105.3c1.45-2.73,3.17-5.96,3.82-7.59.83-2.1,1.75-4.16,2.25-6.38l1.97-8.86c.68-3.08.84-6.17,1.13-9.39.16-1.78-.28-3.66-.59-5.38,0,0,.95.14,1.3.94,1.21,2.72,1.77,5.45,2.11,8.38.37,3.25.5,6.31-.17,9.56-.72,3.51-1.82,6.83-3.38,10.02-2.46,5.03-3.53,5.63-6.17,9.2-.93,1.25-2.18,2.4-3.59,2.98-.17.07-.34-.08-.3-.25l1.63-3.25Z"/>
        <path class="cls-1" d="M66.93,89.88c.35.39.96,1.11.35,1.59-2.52-.04-6.11-3.7-7.5-5.76-3.9-5.8-6.75-12.18-8.57-18.95-1.19-4.4-1.77-4.47-.74-8.99l1.47,1.51c.76.78,1.27,1.52,1.57,2.58l.87,3.07c1.76,6.2,5.55,14.35,8.97,19.83,1.12,1.79,2.15,3.53,3.57,5.11Z"/>
        <path class="cls-1" d="M68.84,44.05l-.13,2.93c0,.17-.16.49-.25.6-.11.15-.7-.13-.79-.31-1.37-3.03-2.09-10.36-2.23-13.96-.09-2.37.16-4.58.94-6.8l3.39-9.64c.68-1.92,1.58-3.86,3-5.29.42-.43,1.05-.74,1.69-1.1.33-.18.75.03.77.41.06.86-.08,1.73-.45,2.52l-1.4,3.04-.37.94-2.76,8.32c-.55,1.65-1.1,3.41-1.13,5.15l-.13,8.39-.18,4.8Z"/>
        <path class="cls-1" d="M93.1,114.8c.41.3.38.92-.06,1.17l-1.16.69c-.52.31-1.57.08-2.22-.23-7.11-3.43-12.98-8.64-16.33-15.87-.59-1.27-1.18-2.57-1.33-4.04-.04-.36.87-.65,1.19-.58s.78.41,1.03.77c1.26,1.89,2.67,3.46,4.2,5.11.89.97,1.73,1.98,2.68,2.89l5.08,4.88c1.05,1,2.31,1.84,3.49,2.7l3.44,2.52Z"/>
        <path class="cls-1" d="M45.39,84.03c-1.94-.4-2.53-1.79-3.85-3.16-2.19-2.29-3.03-2.25-4.68-5.7-1.45-3.03-2.29-6.21-3.11-9.49-.71-2.87-.8-7.26.12-10.35.49-1.63,1.3-3.26,2.05-4.9.21,0,.55-.02.57.1.16.72-.51,5.48-.1,10.06.15,1.62,1.35,7.69,1.94,9.18,1.05,2.66,3.73,6.89,5.35,10.4.65.58,1.46,2.72,1.72,3.87Z"/>
        <path class="cls-1" d="M147.01,140.77c.27.96-2.74.91-3.02.77l-4.88-2.49c-2.93-1.49-5.17-3.88-7.54-6.11-1.29-1.22-5.15-4.44-5.08-5.98.42-.19,1.15-.2,1.58,0,3.21,1.53,6.3,3.09,9.09,5.25,1.74,1.34,3.47,2.42,5.42,3.47,3.95,2.14,3.43,1.6,4.43,5.08Z"/>
        <path class="cls-1" d="M148.12,150.06c.38.65.19,1.49-.43,1.91-.8.53-1.25,1.07-3.19.33-3.44-1.32-6.38-3.5-8.96-6.19-.78-.82-4.97-5.98-4.06-6.57,1.14-.74,3.29,1.43,4.61,2.42,3.27,2.44,7.26,5.19,11.05,6.68.32.36.66.89.98,1.42Z"/>
        <path class="cls-1" d="M189.33,110.92c1.41-1.94,2.54-3.93,3.49-6.15l1.67-3.91,2.31-5.19c1.16-2.6,1.59-4.09,2.47-6.78,0-.02.02-.04.03-.06.12-.23.53-1.5.94-1.5.35,0,.42,2.06.34,3.24-.32,4.9-.47,6.92-3.12,11.22-2.01,3.26-4.42,6.45-7.01,9.22-.11.12-.56.34-.68.26l-.44-.35Z"/>
        <path class="cls-1" d="M77.68,21.96c-.14.54-.37,1.01-.68,1.48-.16.24-.53.21-.65-.05l-.41-.93c.28-5.88,3.62-10.73,6.94-15.4.89-1.25,2.88-2.1,4.19-1.26.58,1.26-.6,2.53-1.3,3.49l-4.83,6.68c-1.37,1.89-2.64,3.58-3.25,5.99Z"/>
        <path class="cls-1" d="M49.74,53.9c-2.44.67-2.38-9.69-2.23-10.88.46-3.48,1.28-6.8,2.45-10.07.36-1,1.31-1.99,2.39-1.38.54.31.1,1.3-.03,1.87-1.47,6.81-2.31,13.58-2.59,20.47Z"/>
        <path class="cls-1" d="M101.45,112.93c-.17.47-1.03,1.06-1.6,1.24-1.59-.41-7.1-3.78-7.96-4.57-.51-.47-5.44-4.86-4.42-5.6.35-.39,1.5-.2,2,.08l9.91,5.66c.6.34,1.23.81,1.87,1.29l.19,1.9Z"/>
        <path class="cls-1" d="M131.24,2.31c-.21,0-.41,0-.61-.06-1.84-.46-4.69-.32-6.47.03-1.41.28-9.91,2.11-9.33-.55-.03-.76,5.69-1.62,6.33-1.64,3.94-.16,8.24-.23,11.98.87l4.29,1.26c.44.13.98,1.12.38,1.35-.93.36-4.54-1.34-6.58-1.27Z"/>
      </g>
      <g>
        <path class="cls-1" d="M31.68,188.59c0,4.95-1.13,9-3.38,12.18-4.09,5.78-10.12,8.67-18.1,8.67-3.79,0-6.41-.12-7.88-.36L.1,186.92c-.03-.32-.06-.6-.07-.82-.02-.23-.02-.4-.02-.53,0-1.5.47-2.79,1.42-3.89,1.16-1.32,2.88-2.12,5.15-2.39l2.13,26.14c.13.02.39.03.79.04.39,0,.93.01,1.61.01,5.22,0,9-2.01,11.33-6.04,1.29-2.21,1.93-5.03,1.93-8.46v-5.1c0-2.08.71-3.7,2.13-4.86,1.32-1.01,3.05-1.52,5.19-1.52v9.08ZM18.89,191.22c0,2.61-.66,4.72-1.98,6.33-1.19,1.47-2.75,2.33-4.69,2.59v-14.01c0-2.11.63-3.76,1.88-4.95,1.18-1.08,2.77-1.62,4.78-1.62v11.67Z"/>
        <path class="cls-1" d="M60.14,180.23c0,2.42-.99,3.71-2.97,3.87-.92.1-1.5.38-1.74.85-.1.23-.15.87-.15,1.93v16.26c0,1.92-.74,3.46-2.22,4.61-1.37,1.05-3,1.57-4.9,1.57v-18.56c0-3.43,1.17-5.65,3.53-6.67h-13.68c-1.14,0-2.03-.46-2.66-1.38-.5-.71-.75-1.54-.75-2.49h25.54Z"/>
        <path class="cls-1" d="M92.08,191.56c0,4.56-1.78,8.5-5.34,11.84-3.03,2.84-6.48,4.57-10.34,5.19v-.15c0-1.21.06-2.05.19-2.54.19-.76.68-1.35,1.45-1.79,1.82-1.03,3.32-2.46,4.49-4.3,1.35-2.08,2.03-4.41,2.03-6.98,0-2.9-.74-5.14-2.22-6.72-1.43-1.48-3.42-2.22-5.94-2.22-1.32,0-2.26.33-2.83.99-.56.66-.85,1.84-.85,3.55v23.8c0,1.87-.67,3.42-2.01,4.66-1.32,1.22-3.08,1.84-5.27,1.84v-26.48c0-3.87,1.84-6.59,5.51-8.17h-2.97c-.61,0-1.16-.1-1.64-.29s-.89-.46-1.23-.8-.6-.74-.77-1.22c-.18-.48-.27-.99-.27-1.56h14.35c4.2,0,7.52.98,9.95,2.92,2.46,1.97,3.7,4.77,3.7,8.41Z"/>
        <path class="cls-1" d="M116.53,203.09c0,4.16-2.44,6.23-7.32,6.23v-16.41c0-3.19-.79-5.62-2.37-7.3-1.42-1.42-3.32-2.13-5.7-2.13-.92,0-2.07.15-3.46.46-.08.02-.17.03-.25.04-.09,0-.19.01-.3.01-1.08,0-1.93-.94-2.56-2.83,1.71-1.01,4.26-1.52,7.66-1.52,4.28,0,7.74,1.22,10.37,3.67,2.63,2.43,3.94,5.79,3.94,10.08v9.69Z"/>
        <path class="cls-1" d="M148.06,205.29c0,1.56-.98,3.08-2.92,4.54l-14.96-16.62c-.95.61-1.43,1.57-1.43,2.88v7.42c0,1.9-.81,3.4-2.44,4.49-1.29.93-2.82,1.4-4.59,1.4v-8.17c0-2.3.48-4.24,1.45-5.82.98-1.55,2.62-2.94,4.93-4.18l-4.64-4.76c-1.06-1.03-1.59-1.93-1.59-2.71,0-.68.34-1.47,1.01-2.37.68-.89,1.42-1.59,2.25-2.1l12.97,13.63c.53-.4.8-1.34.8-2.83v-4.52c0-2.09.88-3.69,2.66-4.78,1.35-.82,2.89-1.23,4.62-1.23v6.23c0,2.46-.68,4.45-2.03,5.97-.31.37-.8.82-1.47,1.35-.68.53-1.55,1.16-2.63,1.88l6.04,6.62c1.32,1.43,1.98,2.66,1.98,3.67Z"/>
        <path class="cls-1" d="M185.3,203.09c0,4.16-2.44,6.23-7.32,6.23v-16.41c0-3.19-.79-5.62-2.37-7.3-1.42-1.42-3.32-2.13-5.7-2.13-.92,0-2.07.15-3.46.46-.08.02-.17.03-.25.04-.09,0-.19.01-.3.01-1.08,0-1.93-.94-2.56-2.83,1.71-1.01,4.26-1.52,7.66-1.52,4.28,0,7.74,1.22,10.37,3.67,2.63,2.43,3.94,5.79,3.94,10.08v9.69Z"/>
        <path class="cls-1" d="M213.76,180.23c0,2.42-.99,3.71-2.97,3.87-.92.1-1.5.38-1.74.85-.1.23-.15.87-.15,1.93v16.26c0,1.92-.74,3.46-2.22,4.61-1.37,1.05-3,1.57-4.9,1.57v-18.56c0-3.43,1.17-5.65,3.53-6.67h-13.68c-1.14,0-2.03-.46-2.66-1.38-.5-.71-.75-1.54-.75-2.49h25.54Z"/>
        <path class="cls-1" d="M243.24,203.09c0,4.16-2.44,6.23-7.32,6.23v-16.31c0-6.35-2.99-9.52-8.96-9.52-1.88,0-3.58.27-5.1.8-.39.19-.77.29-1.14.29-1.55,0-2.59-.85-3.12-2.56,2.38-1.58,6-2.37,10.85-2.37s8.4,1.19,10.95,3.58c2.56,2.37,3.84,5.76,3.84,10.17v9.69ZM226.01,203.3c0,4.01-2.41,6.02-7.22,6.02v-15.32c0-1.13.38-2.01,1.14-2.63.66-.56,1.51-.85,2.54-.85.95,0,1.78.33,2.49.99.71.66,1.06,1.57,1.06,2.73v9.06Z"/>
      </g>
      <g>
        <path class="cls-1" d="M30.44,237.8c0,1.12-.46,1.68-1.39,1.68v-5.09c0-2.36-1.12-3.54-3.36-3.54-.21,0-.42.01-.63.03-.21.02-.43.05-.65.09v6.21c0,.71-.18,1.27-.55,1.68-.36.41-.84.61-1.43.61-.37,0-.71-.08-1.01-.23.14-.36.31-.55.51-.55.02,0,.07.01.15.03.02,0,.05,0,.09.01.03,0,.07,0,.11,0,.1,0,.2-.02.29-.07.09-.04.17-.11.24-.19.07-.08.12-.19.17-.31.04-.12.06-.26.06-.42v-6.65h-.03c-.13,0-.27-.04-.43-.12-.15-.08-.25-.17-.31-.26.87-.39,2.1-.58,3.67-.58,1.46,0,2.57.37,3.34,1.12.77.74,1.15,1.76,1.15,3.07v3.48Z"/>
        <path class="cls-1" d="M36.01,237.89c0,1.07-.45,1.61-1.36,1.61v-8.57c0-.5.22-.75.67-.75.18,0,.35.07.48.22.14.15.21.35.21.6v6.89Z"/>
        <path class="cls-1" d="M47.7,237.92c0,.52-.13.92-.38,1.18-.25.26-.59.39-1.01.39v-5.21c0-2.28-1.19-3.42-3.57-3.42-.58,0-.96.06-1.15.19v6.88c0,1.03-.45,1.55-1.36,1.55v-8.8c.75-.35,1.69-.53,2.81-.53,1.51,0,2.66.36,3.47,1.08s1.21,1.73,1.21,3.03v3.68Z"/>
        <path class="cls-1" d="M59.87,237.8c0,1.12-.46,1.68-1.39,1.68v-5.09c0-2.36-1.12-3.54-3.36-3.54-.21,0-.42.01-.63.03-.21.02-.43.05-.65.09v6.21c0,.71-.18,1.27-.55,1.68-.36.41-.84.61-1.43.61-.37,0-.71-.08-1.01-.23.14-.36.31-.55.51-.55.02,0,.07.01.15.03.02,0,.05,0,.09.01.03,0,.07,0,.11,0,.1,0,.2-.02.29-.07.09-.04.17-.11.24-.19.07-.08.12-.19.17-.31.04-.12.06-.26.06-.42v-6.65h-.03c-.13,0-.27-.04-.43-.12-.15-.08-.25-.17-.31-.26.87-.39,2.1-.58,3.67-.58,1.46,0,2.57.37,3.34,1.12.77.74,1.15,1.76,1.15,3.07v3.48Z"/>
        <path class="cls-1" d="M71.79,234.65c0,1.47-.43,2.64-1.3,3.51-.84.83-1.95,1.24-3.32,1.24-1.15,0-2.1-.22-2.84-.66.14-.28.36-.42.64-.42.09,0,.32.05.7.14.57.13.99.19,1.26.19.99,0,1.77-.3,2.34-.9.68-.71,1.02-1.77,1.02-3.19,0-1.23-.28-2.17-.83-2.82-.5-.6-1.18-.91-2.04-.91-.69,0-1.23.21-1.62.63-.44.44-.66,1.11-.66,1.99s.21,1.46.62,1.86c.33.32.75.49,1.26.49-.19.34-.44.51-.75.51-.06,0-.13,0-.21,0s-.15-.01-.24-.02c-.5-.06-.98-.34-1.42-.83-.48-.56-.72-1.2-.72-1.93,0-1.06.34-1.89,1.02-2.49.68-.61,1.62-.92,2.83-.92,1.34,0,2.38.41,3.12,1.23.75.82,1.12,1.92,1.12,3.31Z"/>
        <path class="cls-1" d="M83.79,237.8c0,1.12-.46,1.68-1.39,1.68v-5.09c0-2.36-1.12-3.54-3.36-3.54-.21,0-.42.01-.63.03-.21.02-.43.05-.65.09v6.21c0,.71-.18,1.27-.55,1.68-.36.41-.84.61-1.43.61-.37,0-.71-.08-1.01-.23.14-.36.31-.55.51-.55.02,0,.07.01.15.03.02,0,.05,0,.09.01.03,0,.07,0,.11,0,.1,0,.2-.02.29-.07.09-.04.17-.11.24-.19.07-.08.12-.19.17-.31.04-.12.06-.26.06-.42v-6.65h-.03c-.13,0-.27-.04-.43-.12-.15-.08-.25-.17-.31-.26.87-.39,2.1-.58,3.67-.58,1.46,0,2.57.37,3.34,1.12.77.74,1.15,1.76,1.15,3.07v3.48Z"/>
        <path class="cls-1" d="M95.13,237.86c0,1.08-.47,1.62-1.4,1.62v-5.14c0-1.08-.29-1.93-.88-2.55-.57-.62-1.44-.93-2.61-.93-.53,0-1,.06-1.42.19-.18.05-.34.07-.49.07-.32,0-.56-.14-.72-.43.65-.37,1.62-.56,2.93-.56,1.52,0,2.69.4,3.5,1.19.73.72,1.09,1.69,1.09,2.92v3.62ZM89.2,237.92c0,1.04-.46,1.56-1.38,1.56v-4.6c0-.28.07-.5.21-.66.14-.15.3-.23.48-.23s.35.07.47.21c.15.17.22.4.22.68v3.03Z"/>
        <path class="cls-1" d="M106.93,242.71h-.86v-16.59h.86v16.59Z"/>
        <path class="cls-1" d="M126.05,237.8c0,1.12-.46,1.68-1.39,1.68v-5.09c0-2.36-1.12-3.54-3.36-3.54-.21,0-.42.01-.63.03-.21.02-.43.05-.65.09v6.21c0,.71-.18,1.27-.55,1.68-.36.41-.84.61-1.43.61-.37,0-.71-.08-1.01-.23.14-.36.31-.55.51-.55.02,0,.07.01.15.03.02,0,.05,0,.09.01.03,0,.07,0,.11,0,.1,0,.2-.02.29-.07.09-.04.17-.11.24-.19.07-.08.12-.19.17-.31.04-.12.06-.26.06-.42v-6.65h-.03c-.13,0-.27-.04-.43-.12-.15-.08-.25-.17-.31-.26.87-.39,2.1-.58,3.67-.58,1.46,0,2.57.37,3.34,1.12.77.74,1.15,1.76,1.15,3.07v3.48Z"/>
        <path class="cls-1" d="M131.62,237.89c0,1.07-.45,1.61-1.36,1.61v-8.57c0-.5.22-.75.67-.75.18,0,.35.07.48.22.14.15.21.35.21.6v6.89Z"/>
        <path class="cls-1" d="M137.35,234c0,1.06-.45,1.59-1.36,1.59v-4.66c0-.5.22-.75.67-.75.18,0,.35.07.48.22.14.15.21.35.21.6v2.99Z"/>
        <path class="cls-1" d="M145.49,238.4c0,.4-.24.77-.73,1.1-.14-.14-.33-.53-.55-1.17-.19-.54-.33-1-.4-1.38,0-.05-.03-.06-.06-.03-.02.03-.04.05-.04.08-.25,1.24-1.01,2.07-2.27,2.49-.04,0-.12.01-.25.01-.05,0-.1-.01-.14-.04-.04-.03-.08-.07-.12-.12-.03-.05-.06-.1-.08-.16-.02-.06-.03-.12-.03-.18,0-.23.14-.41.41-.52.8-.33,1.38-.7,1.75-1.12.41-.47.61-1.05.61-1.74v-2.81c0-.63-.14-1.12-.42-1.48-.26-.31-.61-.47-1.04-.47h-.19c-.46,0-.72-.18-.77-.55.18-.07.56-.1,1.14-.1.77,0,1.4.26,1.89.79.49.53.73,1.23.73,2.12v2.43c0,.7.15,1.49.44,2.36.07.2.11.37.11.49Z"/>
        <path class="cls-1" d="M151.05,237.89c0,1.07-.45,1.61-1.36,1.61v-8.57c0-.5.22-.75.67-.75.18,0,.35.07.48.22.14.15.21.35.21.6v6.89Z"/>
        <path class="cls-1" d="M158.78,230.32c0,.51-.28.77-.83.77h-.09c-.25,0-.46.13-.63.4-.16.27-.25.61-.25,1.03,0,.1,0,.22.03.37.02.15.05.32.09.52l.74,3.6c.09.45.13.79.13,1.01,0,.78-.36,1.27-1.09,1.46l-.95-4.92c-.08-.36-.11-.75-.11-1.15s.1-.81.31-1.26c.24-.51.55-.87.94-1.07h-1.38c-.64,0-.96-.26-.97-.77h4.05Z"/>
        <path class="cls-1" d="M170.34,242.71h-.86v-16.59h.86v16.59Z"/>
        <path class="cls-1" d="M189.47,237.8c0,1.12-.46,1.68-1.39,1.68v-5.09c0-2.36-1.12-3.54-3.36-3.54-.21,0-.42.01-.63.03-.21.02-.43.05-.65.09v6.21c0,.71-.18,1.27-.55,1.68-.36.41-.84.61-1.43.61-.37,0-.71-.08-1.01-.23.14-.36.31-.55.51-.55.02,0,.07.01.15.03.02,0,.05,0,.09.01.03,0,.07,0,.11,0,.1,0,.2-.02.29-.07.09-.04.17-.11.24-.19.07-.08.12-.19.17-.31.04-.12.06-.26.06-.42v-6.65h-.03c-.13,0-.27-.04-.43-.12-.15-.08-.25-.17-.31-.26.87-.39,2.1-.58,3.67-.58,1.46,0,2.57.37,3.34,1.12.77.74,1.15,1.76,1.15,3.07v3.48Z"/>
        <path class="cls-1" d="M195.04,237.89c0,1.07-.45,1.61-1.36,1.61v-8.57c0-.5.22-.75.67-.75.18,0,.35.07.48.22.14.15.21.35.21.6v6.89Z"/>
        <path class="cls-1" d="M205.26,237.86c0,1.08-.46,1.62-1.39,1.62v-5.17c0-1.09-.27-1.93-.82-2.54-.54-.61-1.33-.91-2.39-.91-.3,0-.7.06-1.2.19-.18.04-.31.06-.37.06-.17,0-.35-.17-.54-.51.6-.31,1.41-.47,2.43-.47,1.31,0,2.35.34,3.11,1.01.78.7,1.17,1.68,1.17,2.94v3.77Z"/>
        <path class="cls-1" d="M210.91,237.89c0,1.07-.45,1.61-1.36,1.61v-8.57c0-.5.22-.75.67-.75.18,0,.35.07.48.22.14.15.21.35.21.6v6.89Z"/>
        <path class="cls-1" d="M222.41,237.86c0,1.08-.47,1.62-1.4,1.62v-5.14c0-1.08-.29-1.93-.88-2.55-.57-.62-1.44-.93-2.61-.93-.53,0-1,.06-1.42.19-.18.05-.34.07-.49.07-.32,0-.56-.14-.72-.43.65-.37,1.62-.56,2.93-.56,1.52,0,2.69.4,3.5,1.19.73.72,1.09,1.69,1.09,2.92v3.62ZM216.47,237.92c0,1.04-.46,1.56-1.38,1.56v-4.6c0-.28.07-.5.21-.66.14-.15.3-.23.48-.23s.35.07.47.21c.15.17.22.4.22.68v3.03Z"/>
      </g>
    </g>
  </g>
</svg>